<svg xmlns="http://www.w3.org/2000/svg" width="612.284" height="790.866" viewBox="0 0 612.284 790.866"><style>tspan{font-family:Helvetica Neue,Arial,sans-serif}</style><g fill="none"><path fill="#fff" d="M0 0h612.284v790.866H0z"/><text fill="#293131" transform="translate(235.642 115.797)"><tspan x=".17" y="51" font-size="52" font-weight="500">React</tspan></text><text fill="#7e8e97" transform="translate(136.142 186.59)"><tspan x=".14" y="22" font-size="24" font-weight="300">FROM APPRENTICE TO MASTER</tspan></text><text fill="#000" transform="translate(180.307 685.815)"><tspan x=".12" y="29" font-size="32" font-weight="300">Juho Vepsäläinen</tspan></text><text fill="#283131" transform="translate(221.642 59.358)"><tspan x=".148" y="29" font-size="32" font-weight="700">SURVIVE</tspan> <tspan y="29" fill="#00c1cf" font-size="32" font-weight="700">JS</tspan></text><path fill="#2b3337" d="M307.296 306.142c-68.887 0-124.93 55.95-124.93 124.723s56.043 124.726 124.93 124.726 124.93-55.953 124.93-124.726-56.043-124.723-124.93-124.723m0 10.529c63.038 0 114.383 51.261 114.383 114.194 0 62.935-51.345 114.197-114.383 114.197-63.039 0-114.384-51.262-114.384-114.197 0-62.933 51.345-114.194 114.384-114.194"/><path fill="#2b3337" d="M203.889 453.188c18.624-9.143 39.263-14.464 59.93-15.349.318 2.22.952 4.756 1.587 6.975-19.584 7.934-37.373 19.945-52.27 35.081a104.377 104.377 0 0 1-9.247-26.707zM214.823 381.845c20.284 5.028 39.386 14.105 55.982 26.83-1.271 1.9-2.54 4.119-3.494 6.34-20.253-6.266-41.53-8.654-62.68-6.556a104.455 104.455 0 0 1 10.192-26.614zM202.594 444.896c-.48-4.072-.754-8.207-.754-12.408 0-5.383.41-10.669 1.19-15.832 20.761-2.518 41.937-.23 61.74 5.967 0 .315-.317.951-.317 1.267-.316 2.219-.634 4.122-.634 6.025-21.3.85-42.077 5.79-61.225 14.981zM237.552 353.536c17.35 11.48 32.186 26.638 43.415 44.04-1.905 1.585-3.81 3.17-5.4 4.756-16.775-12.774-36.106-22.212-56.38-27.695a105.785 105.785 0 0 1 18.365-21.1zM308.55 537.738c-5.896-19.978-7.678-41.184-4.72-61.855h2.222c1.905 0 3.493 0 5.082-.318 4.302 20.914 13.31 40.765 25.78 57.97a105.685 105.685 0 0 1-28.364 4.203zM345.044 530.801c-12.442-16.766-21.485-36.213-25.972-56.82 2.223-.634 4.446-1.585 6.67-2.537 11.484 18.06 26.629 33.748 44.21 45.735a105.19 105.19 0 0 1-24.908 13.622zM300.055 537.495a105.208 105.208 0 0 1-27.684-5.658c1.312-20.703 6.869-40.996 16.534-59.124 2.223.951 4.762 1.585 6.985 2.219-2.84 20.7-1.58 42.154 4.165 62.563zM265.165 529.015a105.403 105.403 0 0 1-23.876-14.43c8.332-18.897 20.863-36.29 36.184-50.116 1.905 1.585 3.81 3.17 5.717 4.44-9.625 18.366-15.69 39-18.025 60.106zM304.762 327.27c5.947 20.04 7.752 41.32 4.783 62.065-2.54 0-4.764 0-7.302.316-4.298-20.878-13.28-40.698-25.717-57.884 8.963-2.723 18.435-4.265 28.236-4.497zM268.466 334.6c12.374 16.725 21.365 36.103 25.837 56.637-2.223.634-4.446 1.585-6.67 2.537-11.383-17.9-26.356-33.48-43.739-45.426a105.235 105.235 0 0 1 24.572-13.748zM313.216 327.38c9.685.535 19.01 2.39 27.826 5.359-1.237 20.927-6.807 41.45-16.571 59.765-2.223-.95-4.764-1.583-6.987-2.22 2.856-20.816 1.56-42.394-4.268-62.904z"/><path fill="#22b6c4" d="M348.825 335.69a105.425 105.425 0 0 1 24.262 14.532c-8.292 18.931-20.568 36.361-35.914 50.209-1.905-1.585-3.81-3.17-5.718-4.44 9.69-18.489 15.76-39.278 17.37-60.302z"/><path fill="#2b3337" d="M397.214 377.458c-14.382 15.17-31.917 27.044-51.152 35.019-.951-1.901-2.22-4.12-3.81-6.023 15.62-14.174 28.412-31.658 37.081-50.838a105.794 105.794 0 0 1 17.881 21.842zM399.734 483.19c-20.488-4.998-39.783-14.127-56.528-26.962 1.27-1.904 2.54-4.122 3.493-6.341 15.56 4.755 31.436 7.292 47.631 7.292 5.26 0 10.512-.318 15.667-.816a104.498 104.498 0 0 1-10.263 26.827zM410.669 411.598c-18.685 9.215-39.41 14.576-60.16 15.463-.318-2.219-.952-4.756-1.588-6.974 19.651-7.963 37.49-20.03 52.417-35.234a104.271 104.271 0 0 1 9.33 26.745zM411.973 419.883c.494 4.135.777 8.336.777 12.604 0 5.344-.406 10.593-1.175 15.723-20.851 2.57-42.126.292-62.018-5.933 0-.316.316-.95.316-1.267.318-2.219.636-4.122.636-6.023 21.389-.855 42.251-5.838 61.464-15.104zM376.493 511.912c-17.504-11.506-32.464-26.752-43.766-44.272 1.905-1.267 3.81-2.852 5.398-4.755 16.932 12.893 36.471 22.376 57.183 27.6a105.751 105.751 0 0 1-18.815 21.427zM217.113 487.106c14.324-15.01 31.744-26.767 50.834-34.684.952 1.903 2.223 4.122 3.81 6.025-15.527 14.092-28.268 31.45-36.935 50.497-6.821-6.448-12.803-13.777-17.709-21.838z"/><path fill="#22b6c4" d="M307.56 398.502c-17.926 0-33.071 15.122-33.071 33.018 0 17.898 15.145 33.02 33.07 33.02 17.927 0 33.074-15.122 33.074-33.02 0-17.896-15.147-33.018-33.073-33.018m0 8.046c13.549 0 25.014 11.447 25.014 24.972 0 13.527-11.465 24.973-25.014 24.973s-25.014-11.446-25.014-24.973c0-13.525 11.465-24.972 25.014-24.972"/><path fill="#2b3337" d="M307.902 444.183c-6.865 0-12.673-5.799-12.673-12.653s5.808-12.65 12.673-12.65c6.864 0 12.672 5.796 12.672 12.65s-5.808 12.653-12.672 12.653z"/></g></svg>