<?xml version="1.0" encoding="UTF-8" standalone="no"?>
<!DOCTYPE svg PUBLIC "-//W3C//DTD SVG 1.1//EN" "http://www.w3.org/Graphics/SVG/1.1/DTD/svg11.dtd">
<svg width="100%" height="100%" viewBox="0 0 127 126" version="1.1" xmlns="http://www.w3.org/2000/svg" xmlns:xlink="http://www.w3.org/1999/xlink" xml:space="preserve" xmlns:serif="http://www.serif.com/" style="fill-rule:evenodd;clip-rule:evenodd;stroke-linejoin:round;stroke-miterlimit:2;">
    <g transform="matrix(1,0,0,1,-0.281,-0.281)">
        <g id="Group_4">
            <path id="Graphic_25" d="M63.385,0.281C28.589,0.281 0.281,28.542 0.281,63.281C0.281,98.019 28.589,126.281 63.385,126.281C98.181,126.281 126.488,98.019 126.488,63.281C126.488,28.542 98.181,0.281 63.385,0.281M63.385,5.6C95.226,5.6 121.161,31.492 121.161,63.281C121.161,95.07 95.226,120.963 63.385,120.963C31.543,120.963 5.608,95.07 5.608,63.281C5.608,31.492 31.543,5.6 63.385,5.6" style="fill:rgb(60,66,68);fill-rule:nonzero;"/>
            <path id="Graphic_24" d="M11.153,74.556C20.56,69.938 30.985,67.251 41.424,66.804C41.585,67.924 41.905,69.206 42.226,70.326C32.334,74.334 23.348,80.401 15.823,88.046C13.695,83.838 12.102,79.315 11.153,74.556Z" style="fill:rgb(60,66,68);fill-rule:nonzero;"/>
            <path id="Graphic_23" d="M16.676,38.52C26.922,41.06 36.57,45.645 44.953,52.072C44.311,53.032 43.67,54.153 43.188,55.274C32.958,52.11 22.211,50.903 11.528,51.963C12.64,47.206 14.38,42.69 16.676,38.52Z" style="fill:rgb(60,66,68);fill-rule:nonzero;"/>
            <path id="Graphic_22" d="M10.499,70.368C10.257,68.311 10.118,66.222 10.118,64.1C10.118,61.382 10.325,58.712 10.719,56.103C21.206,54.832 31.902,55.987 41.905,59.117C41.905,59.277 41.744,59.598 41.744,59.757C41.585,60.878 41.424,61.839 41.424,62.801C30.665,63.23 20.171,65.726 10.499,70.368Z" style="fill:rgb(60,66,68);fill-rule:nonzero;"/>
            <path id="Graphic_21" d="M28.156,24.221C36.92,30.02 44.414,37.676 50.086,46.466C49.124,47.267 48.161,48.067 47.358,48.868C38.885,42.416 29.121,37.649 18.88,34.879C21.489,30.925 24.613,27.343 28.156,24.221Z" style="fill:rgb(60,66,68);fill-rule:nonzero;"/>
            <path id="Graphic_20" d="M64.019,117.264C61.04,107.173 60.14,96.461 61.634,86.02L62.757,86.02C63.719,86.02 64.521,86.02 65.324,85.859C67.497,96.423 72.047,106.45 78.345,115.14C73.792,116.467 68.989,117.205 64.019,117.264Z" style="fill:rgb(60,66,68);fill-rule:nonzero;"/>
            <path id="Graphic_19" d="M82.452,113.76C76.167,105.291 71.6,95.468 69.333,85.059C70.456,84.739 71.579,84.258 72.702,83.778C78.503,92.9 86.153,100.824 95.033,106.879C91.202,109.709 86.974,112.029 82.452,113.76Z" style="fill:rgb(60,66,68);fill-rule:nonzero;"/>
            <path id="Graphic_18" d="M59.727,117.141C54.856,116.811 50.167,115.831 45.744,114.283C46.407,103.826 49.213,93.575 54.096,84.419C55.219,84.899 56.501,85.219 57.624,85.539C56.19,95.996 56.825,106.832 59.727,117.141Z" style="fill:rgb(60,66,68);fill-rule:nonzero;"/>
            <path id="Graphic_17" d="M42.104,112.857C37.749,110.961 33.699,108.501 30.044,105.569C34.253,96.024 40.582,87.238 48.321,80.254C49.283,81.055 50.245,81.856 51.209,82.497C46.347,91.774 43.283,102.197 42.104,112.857Z" style="fill:rgb(60,66,68);fill-rule:nonzero;"/>
            <path id="Graphic_16" d="M62.105,10.953C65.109,21.076 66.021,31.825 64.521,42.303C63.238,42.303 62.115,42.303 60.832,42.463C58.662,31.917 54.124,21.906 47.843,13.225C52.37,11.849 57.155,11.071 62.105,10.953Z" style="fill:rgb(60,66,68);fill-rule:nonzero;"/>
            <path id="Graphic_15" d="M43.772,14.656C50.022,23.104 54.563,32.892 56.822,43.264C55.699,43.584 54.576,44.065 53.453,44.545C47.703,35.504 40.14,27.635 31.36,21.6C35.136,18.76 39.308,16.421 43.772,14.656Z" style="fill:rgb(60,66,68);fill-rule:nonzero;"/>
            <path id="Graphic_14" d="M66.375,11.009C71.267,11.279 75.978,12.216 80.43,13.716C79.806,24.286 76.992,34.653 72.06,43.904C70.937,43.424 69.654,43.104 68.531,42.783C69.974,32.268 69.319,21.369 66.375,11.009Z" style="fill:rgb(60,66,68);fill-rule:nonzero;"/>
            <path id="Graphic_13" d="M84.362,15.206C88.791,17.101 92.904,19.584 96.617,22.547C92.428,32.109 86.228,40.913 78.476,47.908C77.514,47.107 76.552,46.307 75.588,45.665C80.482,36.326 83.548,25.825 84.362,15.206Z" style="fill:rgb(34,182,196);fill-rule:nonzero;"/>
            <path id="Graphic_12" d="M108.804,36.304C101.539,43.967 92.682,49.964 82.966,53.993C82.486,53.032 81.845,51.912 81.042,50.95C88.931,43.791 95.393,34.96 99.772,25.271C103.251,28.523 106.297,32.229 108.804,36.304Z" style="fill:rgb(60,66,68);fill-rule:nonzero;"/>
            <path id="Graphic_11" d="M110.077,89.711C99.728,87.186 89.982,82.575 81.524,76.092C82.165,75.13 82.806,74.01 83.288,72.889C91.147,75.291 99.167,76.572 107.347,76.572C110.004,76.572 112.657,76.412 115.261,76.16C114.146,80.958 112.393,85.509 110.077,89.711Z" style="fill:rgb(60,66,68);fill-rule:nonzero;"/>
            <path id="Graphic_10" d="M115.6,53.549C106.162,58.203 95.694,60.911 85.212,61.359C85.052,60.238 84.732,58.957 84.411,57.836C94.336,53.815 103.347,47.719 110.887,40.039C113.032,44.251 114.64,48.782 115.6,53.549Z" style="fill:rgb(60,66,68);fill-rule:nonzero;"/>
            <path id="Graphic_9" d="M116.259,57.734C116.508,59.822 116.651,61.944 116.651,64.1C116.651,66.799 116.446,69.451 116.058,72.042C105.526,73.34 94.779,72.189 84.732,69.045C84.732,68.886 84.891,68.566 84.891,68.405C85.052,67.284 85.212,66.323 85.212,65.363C96.016,64.931 106.554,62.414 116.259,57.734Z" style="fill:rgb(60,66,68);fill-rule:nonzero;"/>
            <path id="Graphic_8" d="M98.337,104.219C89.496,98.407 81.94,90.706 76.231,81.856C77.193,81.216 78.155,80.415 78.957,79.454C87.51,85.967 97.379,90.757 107.841,93.396C105.174,97.423 101.972,101.061 98.337,104.219Z" style="fill:rgb(60,66,68);fill-rule:nonzero;"/>
            <path id="Graphic_7" d="M17.832,91.689C25.068,84.107 33.867,78.168 43.509,74.169C43.99,75.131 44.632,76.251 45.434,77.213C37.591,84.331 31.155,93.098 26.778,102.719C23.332,99.462 20.31,95.761 17.832,91.689Z" style="fill:rgb(60,66,68);fill-rule:nonzero;"/>
            <path id="Graphic_6" d="M63.518,46.934C54.464,46.934 46.814,54.572 46.814,63.611C46.814,72.652 54.464,80.29 63.518,80.29C72.573,80.29 80.224,72.652 80.224,63.611C80.224,54.572 72.573,46.934 63.518,46.934M63.518,50.998C70.362,50.998 76.153,56.78 76.153,63.611C76.153,70.444 70.362,76.226 63.518,76.226C56.675,76.226 50.883,70.444 50.883,63.611C50.883,56.78 56.675,50.998 63.518,50.998" style="fill:rgb(34,182,196);fill-rule:nonzero;"/>
            <path id="Graphic_5" d="M63.691,70.008C60.223,70.008 57.29,67.079 57.29,63.617C57.29,60.155 60.223,57.226 63.691,57.226C67.158,57.226 70.092,60.155 70.092,63.617C70.092,67.079 67.158,70.008 63.691,70.008Z" style="fill:rgb(60,66,68);fill-rule:nonzero;"/>
        </g>
    </g>
</svg>
