<svg xmlns="http://www.w3.org/2000/svg" width="143" height="129"><title>REDOM</title><desc>Created with Sketch.</desc><g fill="none"><path id="Combined-Shape" fill="#E8DC64" d="M125 75l12.5 25h-25L125 75zm0-50l12.5 25h-25L125 25zm-25 50l12.5 25h-25L100 75zm12.5-25L125 75h-25l12.5-25zm-100 0L25 75H0l12.5-25zm25-50L50 25H25L37.5 0zm-25 0L25 25H0L12.5 0zM25 25l12.5 25h-25L25 25zm25 50l12.5 25h-25L50 75zm12.5-25L75 75H50l12.5-25zM75 25l12.5 25h-25L75 25zm12.5 25L100 75H75l12.5-25z"/><path id="Combined-Shape" fill="#FDF06F" d="M25 75l12.5-25h-25L25 75zm25-50L62.5 0h-25L50 25zm-25 0L37.5 0h-25L25 25zm12.5 25L50 25H25l12.5 25zm-25 0L25 25H0l12.5 25zm50 50L75 75H50l12.5 25zM100 75l12.5-25h-25L100 75zm12.5 25L125 75h-25l12.5 25zM125 75l12.5-25h-25L125 75zm0-50l12.5-25h-25L125 25zM12.5 100L25 75H0l12.5 25zm75-50L100 25H75l12.5 25z"/><path id="Combined-Shape" fill="#BA152B" d="M25 75l12.5 25h-25L25 75zm50 0l12.5 25h-25L75 75zM37.5 50L50 75H25l12.5-25zM50 25l12.5 25h-25L50 25zM87.5 0L100 25H75L87.5 0zm25 0L125 25h-25l12.5-25zM100 25l12.5 25h-25L100 25zM62.5 0L75 25H50L62.5 0zm25 50L100 75H75l12.5-25z"/><path fill="#D31B33" d="M100 25l12.5-25h-25L100 25zm-62.5 75L50 75H25l12.5 25zM50 75l12.5-25h-25L50 75zm25-50L87.5 0h-25L75 25zm12.5 75L100 75H75l12.5 25zm25-50L125 25h-25l12.5 25zM75 75l12.5-25h-25L75 75zM62.5 50L75 25H50l12.5 25z"/><path fill="#222" d="M21.78 104.67c1.76 0 3.22.2 4.37.56 1.16.37 2.08.9 2.76 1.58.7.7 1.17 1.5 1.44 2.42.28.93.42 1.95.42 3.07 0 1.53-.33 2.9-.98 4.12-.65 1.2-1.76 2.12-3.35 2.74l4.82 8.84H25.6l-4.3-8.08h-3.84V128h-5.22v-23.33h9.54zm-4.32 11.12h3.76c.86 0 1.56-.1 2.1-.24.56-.16 1-.38 1.33-.68.33-.3.56-.66.7-1.1.13-.42.2-.9.2-1.45 0-.53-.07-1-.2-1.44-.14-.44-.37-.8-.7-1.08-.33-.3-.77-.5-1.32-.66-.55-.16-1.25-.23-2.1-.23h-3.77v6.86zM34.9 128l.02-23.33h16.56v4.3H40.13v5.1h9.83v4.33h-9.83v5.28h11.35V128H34.92zm26.55-2.4c0 .78-.23 1.44-.68 1.97-.45.53-1.2.8-2.23.8s-1.77-.27-2.2-.78c-.45-.53-.67-1.2-.67-2 0-.78.22-1.42.66-1.94.44-.52 1.18-.77 2.2-.77 1.05-.02 1.8.24 2.24.76.45.52.68 1.16.68 1.93zm0-11.72c0 .8-.23 1.45-.68 1.98-.45.52-1.2.8-2.23.8s-1.77-.26-2.2-.77c-.45-.52-.67-1.2-.67-2.02 0-.77.22-1.42.66-1.93.44-.52 1.18-.78 2.2-.78 1.05 0 1.8.26 2.24.78.45.5.68 1.16.68 1.93zm4.52-9.2h8.48c2.22 0 4.07.3 5.54.9 1.47.6 2.64 1.43 3.52 2.5.88 1.04 1.5 2.28 1.9 3.7.36 1.42.55 2.95.55 4.6 0 1.6-.2 3.12-.58 4.53-.4 1.4-1.03 2.64-1.93 3.7-.9 1.06-2.07 1.9-3.54 2.5-1.48.6-3.3.9-5.48.9h-8.48v-23.33zm9.24 19c1 0 1.84-.18 2.55-.55.7-.36 1.27-.87 1.72-1.53.44-.66.76-1.44.97-2.33.2-.9.3-1.86.3-2.92 0-1.06-.1-2.03-.28-2.94-.2-.9-.52-1.67-.96-2.33-.44-.66-1.02-1.18-1.73-1.55-.72-.37-1.6-.56-2.63-.56h-3.96v14.72h4.03zm24.7 4.68c-1.8 0-3.4-.28-4.76-.86-1.36-.57-2.5-1.37-3.43-2.4-.92-1.04-1.6-2.3-2.1-3.75-.46-1.46-.7-3.1-.7-4.9 0-1.85.24-3.52.73-5.02.48-1.5 1.2-2.77 2.14-3.82.95-1.05 2.12-1.86 3.52-2.44 1.4-.57 3-.85 4.8-.85 1.8 0 3.38.3 4.76.85 1.37.56 2.53 1.36 3.46 2.4.94 1.05 1.65 2.3 2.13 3.77.5 1.46.73 3.1.73 4.9 0 1.8-.24 3.45-.73 4.95-.48 1.5-1.2 2.78-2.16 3.84-.97 1.08-2.14 1.9-3.54 2.5-1.4.57-3.02.86-4.87.86zm.2-4.3c1.84 0 3.28-.64 4.3-1.93 1.05-1.3 1.56-3.25 1.56-5.84 0-2.57-.5-4.5-1.53-5.77-1.02-1.3-2.47-1.93-4.34-1.93-1.92 0-3.4.65-4.43 1.96-1.04 1.3-1.55 3.23-1.55 5.76 0 2.57.52 4.5 1.58 5.8 1.06 1.3 2.52 1.95 4.4 1.95zm21.84-19.4l5.44 13.28 5.45-13.27h5.9l1.82 23.33h-5.25l-1.06-13.46-.03-2.45-5 11.74h-3.63l-5-11.7-.05 2.36-1.03 13.5h-5.3l1.83-23.33h5.9z"/></g></svg>